<?xml version="1.0" encoding="UTF-8" standalone="no"?>
<svg width="736px" height="736px" viewBox="0 0 736 736" version="1.1" xmlns="http://www.w3.org/2000/svg" xmlns:xlink="http://www.w3.org/1999/xlink">
    <!-- Generator: Sketch 47.1 (45422) - http://www.bohemiancoding.com/sketch -->
    <title>Artboard 3</title>
    <desc>Created with Sketch.</desc>
    <defs></defs>
    <g id="Page-1" stroke="none" stroke-width="1" fill="none" fill-rule="evenodd">
        <g id="Artboard-3" fill-rule="nonzero" fill="#FAFAFA">
            <g id="instagram" transform="translate(123.000000, 123.000000)">
                <path d="M244.92,44.13 C310.32,44.13 318.06,44.38 343.92,45.56 C367.77,46.67 380.74,50.67 389.37,53.99 C400.007563,57.9159587 409.630034,64.1760322 417.53,72.31 C425.663968,80.2099661 431.924041,89.8324372 435.85,100.47 C439.2,109.1 443.19,122.07 444.28,145.95 C445.46,171.78 445.71,179.52 445.71,244.95 C445.71,310.38 445.46,318.09 444.28,343.95 C443.19,367.83 439.2,380.8 435.85,389.43 C427.610227,410.788406 410.728406,427.670227 389.37,435.91 C380.74,439.26 367.77,443.25 343.89,444.34 C318.07,445.52 310.32,445.77 244.89,445.77 C179.46,445.77 171.74,445.52 145.89,444.34 C122.01,443.25 109.04,439.26 100.41,435.91 C89.7847277,431.95993 80.1794727,425.67944 72.3,417.53 C64.1696483,409.62902 57.9130429,400.006627 53.99,389.37 C50.64,380.74 46.65,367.77 45.56,343.89 C44.38,318.06 44.13,310.32 44.13,244.89 C44.13,179.46 44.38,171.75 45.56,145.89 C46.65,122.01 50.64,109.04 53.99,100.41 C57.9209826,89.7948605 64.1771178,80.1936918 72.3,72.31 C80.1999661,64.1760322 89.8224372,57.9159587 100.46,53.99 C109.09,50.64 122.06,46.65 145.94,45.56 C171.77,44.38 179.51,44.13 244.94,44.13 L244.92,44.13 Z M244.94,0 C178.42,0 170.08,0.28 143.94,1.47 C117.8,2.66 100.07,6.8 84.49,12.85 C68.1468331,19.0030244 53.3426692,28.6472307 41.11,41.11 C28.6508408,53.3436554 19.0100955,68.147745 12.86,84.49 C6.8,100.07 2.66,117.87 1.47,143.94 C0.28,170.01 0,178.4 0,244.94 C0,311.48 0.28,319.8 1.47,345.94 C2.66,372.08 6.8,389.81 12.85,405.39 C19.0000955,421.732255 28.6408408,436.536345 41.1,448.77 C53.3336554,461.229159 68.137745,470.869905 84.48,477.02 C100.06,483.07 117.86,487.21 143.93,488.4 C170,489.59 178.39,489.87 244.93,489.87 C311.47,489.87 319.79,489.59 345.93,488.4 C372.07,487.21 389.8,483.07 405.38,477.02 C438.278449,464.295874 464.285874,438.288449 477.01,405.39 C483.06,389.81 487.2,372.01 488.39,345.94 C489.58,319.87 489.86,311.48 489.86,244.94 C489.86,178.4 489.58,170.08 488.39,143.94 C487.2,117.8 483.06,100.07 477.01,84.49 C470.859905,68.147745 461.219159,53.3436554 448.76,41.11 C436.526345,28.6508408 421.722255,19.0100955 405.38,12.86 C389.77,6.8 371.97,2.67 345.9,1.47 C319.83,0.27 311.44,1.77635684e-15 244.9,1.77635684e-15 L244.9,1.77635684e-15 L244.94,0 Z" id="Shape"></path>
                <path d="M244.92,119.15 C175.459147,119.15 119.15,175.459147 119.15,244.92 C119.15,314.380853 175.459147,370.69 244.92,370.69 C314.380853,370.69 370.69,314.380853 370.69,244.92 C370.69,211.563722 357.43927,179.57363 333.85282,155.98718 C310.26637,132.40073 278.276278,119.15 244.92,119.15 Z M244.92,326.56 C211.899702,326.56 182.130796,306.669053 169.494475,276.162275 C156.858154,245.655498 163.842926,210.540679 187.191802,187.191802 C210.540679,163.842926 245.655498,156.858154 276.162275,169.494475 C306.669053,182.130796 326.56,211.899702 326.56,244.92 C326.56,290.008527 290.008527,326.56 244.92,326.56 Z" id="Shape"></path>
                <circle id="Oval" cx="375.66" cy="114.18" r="29.39"></circle>
            </g>
        </g>
    </g>
</svg>