<?xml version="1.0" encoding="UTF-8" standalone="no"?>
<svg width="254px" height="254px" viewBox="0 0 254 254" version="1.1" xmlns="http://www.w3.org/2000/svg" xmlns:xlink="http://www.w3.org/1999/xlink">
    <!-- Generator: Sketch 47.1 (45422) - http://www.bohemiancoding.com/sketch -->
    <title>Artboard</title>
    <desc>Created with Sketch.</desc>
    <defs></defs>
    <g id="Page-1" stroke="none" stroke-width="1" fill="none" fill-rule="evenodd">
        <g id="Artboard" fill-rule="nonzero" fill="#FAFAFA">
            <g id="line" transform="translate(34.000000, 39.000000)">
                <path d="M85.25017,174.31162 C84.89507,173.38632 85.11888,169.10032 85.74752,164.78722 C86.91644,156.76732 86.41978,153.45168 83.71298,151.20525 C82.91332,150.54158 77.57894,149.04755 71.85881,147.88517 C35.155227,140.42671 9.498437,118.97472 1.941167,89.42609 C-4.186573,65.46684 5.480807,39.64174 27.162097,22.0518 C34.649707,15.97713 49.713167,8.04384 59.458567,5.0426 C68.51439,2.25372 83.46512,0.00589 92.95857,0.00589 C102.45202,0.00589 117.40275,2.25372 126.45857,5.0426 C130.30857,6.22826 137.73357,9.39101 142.95857,12.07093 C164.7367,23.24099 178.63227,39.66847 183.97596,60.56211 C190.51959,86.14743 180.14991,110.29896 152.26548,134.4175 C132.15526,151.81176 94.80741,175.99412 88.05348,175.99412 C86.86676,175.99412 85.60527,175.23702 85.25017,174.31162 L85.25017,174.31162 Z M58.393467,99.01885 C60.31138,98.28966 60.95857,97.3309 60.95857,95.21885 C60.95857,90.8221 59.342097,89.9941 50.758567,89.9941 L42.958567,89.9941 L42.958567,73.32284 C42.958567,59.21338 42.704257,56.37057 41.303577,54.82284 C39.249997,52.55365 37.164187,52.49804 34.787307,54.64909 C33.133827,56.14547 32.958567,58.18759 32.958567,75.95796 C32.958567,95.98848 33.302127,97.99334 36.958567,99.30012 C39.594287,100.2421 55.733077,100.03033 58.393467,99.01885 L58.393467,99.01885 Z M74.70857,97.16323 C75.61072,96.04356 75.95857,90.30049 75.95857,76.52548 C75.95857,60.86929 75.6788,57.03969 74.40187,55.21661 C72.55133,52.57459 70.29364,52.38089 67.78731,54.64909 C66.13013,56.14881 65.95857,58.20739 65.95857,76.59238 C65.95857,96.11419 66.03847,96.93665 68.07337,98.36196 C70.39529,99.98829 72.77938,99.55758 74.70857,97.16323 L74.70857,97.16323 Z M91.73845,85.63112 C91.89238,78.68076 92.34238,73.00723 92.73845,73.02329 C93.13451,73.03939 97.67302,78.85044 102.82401,85.93684 C107.975,93.02325 113.00839,99.03537 114.00931,99.29712 C115.01024,99.55887 116.7583,99.12225 117.89388,98.32686 C119.86524,96.94606 119.95857,95.95984 119.95857,76.50882 C119.95857,59.32228 119.71286,55.89125 118.38714,54.56553 C116.44314,52.62153 114.90621,52.58165 112.3997,54.41017 C110.72366,55.63287 110.39029,57.44198 109.95857,67.65768 L109.45857,79.48912 L100.07421,66.76635 C94.91281,59.76883 89.8673,53.78252 88.86198,53.46344 C87.85665,53.14437 86.11712,53.37404 84.99634,53.97388 C83.04573,55.01782 82.95857,55.95874 82.95857,75.97258 C82.95857,96.12758 83.03477,96.93406 85.07407,98.36245 C86.45116,99.327 87.93461,99.56914 89.32407,99.05617 C91.32757,98.31651 91.47575,97.49258 91.73845,85.63112 L91.73845,85.63112 Z M152.73606,98.4374 C153.95844,97.58121 154.95168,96.11871 154.94326,95.1874 C154.90876,91.3676 153.21493,90.50484 144.74769,89.9941 L136.45857,89.4941 L136.45857,85.4941 L136.45857,81.4941 L144.93863,80.9941 C153.11604,80.51195 153.45327,80.39539 154.3872,77.72838 C155.97589,73.19165 153.40754,71.57473 143.92892,71.14428 L135.95857,70.78233 L135.95857,66.88821 L135.95857,62.9941 L143.62983,62.9941 C153.85546,62.9941 157.73378,59.71815 153.30358,54.82284 C151.90215,53.27427 150.05362,52.9941 141.23784,52.9941 C135.51193,52.9941 129.95667,53.45993 128.89283,54.02928 C127.07517,55.00207 126.95857,56.3248 126.95857,75.97258 C126.95857,101.26572 126.21746,99.9941 140.95857,99.9941 C147.98811,99.9941 151.10098,99.58265 152.73606,98.4374 Z" id="path2996"></path>
            </g>
        </g>
    </g>
</svg>